if (_typeface_js && _typeface_js.loadFace) _typeface_js.loadFace({"glyphs":{"S":{"x_min":70.546875,"x_max":882,"ha":965,"o":"m 875 999 l 711 800 q 690 829 711 807 q 624 870 667 850 q 520 890 581 890 q 510 890 515 890 q 446 874 476 890 q 409 817 413 853 q 408 806 408 811 q 434 751 408 772 q 516 712 464 726 q 614 683 565 697 q 820 554 759 640 q 882 330 882 466 q 882 314 882 322 q 838 145 882 220 q 695 17 787 63 q 480 -30 602 -30 q 472 -30 476 -30 q 287 0 372 -30 q 140 69 197 31 q 70 119 83 106 l 244 328 q 326 263 267 301 q 438 232 374 232 q 466 233 452 232 q 559 257 526 239 q 593 328 593 275 q 593 330 593 329 q 551 393 593 371 q 423 442 507 416 q 309 480 337 465 q 216 546 258 509 q 145 643 174 580 q 117 789 117 701 q 117 797 117 793 q 168 973 117 893 q 305 1100 220 1054 q 488 1146 388 1146 q 496 1146 492 1146 q 875 999 727 1146 "},"/":{"x_min":70.875,"x_max":887.390625,"ha":950,"o":"m 70 -219 l 713 1167 l 719 1178 l 887 1104 l 249 -281 l 247 -284 l 70 -219 "},"K":{"x_min":108,"x_max":1078.84375,"ha":1101,"o":"m 401 521 l 401 2 l 108 -25 l 108 1118 l 401 1150 l 401 629 l 782 1144 l 1069 1067 l 696 572 l 1078 43 l 778 -37 l 401 521 "},"7":{"x_min":70.875,"x_max":884.671875,"ha":965,"o":"m 70 860 l 144 1131 l 884 1131 l 529 0 l 208 -45 l 523 860 l 70 860 "},"d":{"x_min":33,"x_max":953,"ha":1058,"o":"m 293 435 q 289 411 289 422 q 340 275 289 331 q 475 203 397 210 q 494 202 484 202 q 630 250 570 202 q 705 388 697 303 q 707 407 707 397 q 685 499 707 454 q 610 587 659 553 q 502 621 561 621 q 500 621 501 621 q 357 566 420 621 q 293 435 293 511 m 472 -36 q 461 -36 466 -36 q 255 18 349 -36 q 94 177 155 75 q 33 400 33 280 q 33 405 33 402 q 87 624 33 522 q 241 794 142 730 q 458 858 337 858 q 691 771 605 858 l 691 1116 l 953 1148 l 953 -2 l 699 -27 l 699 51 q 618 -4 675 26 q 472 -36 559 -36 "},",":{"x_min":70.875,"x_max":563.890625,"ha":629,"o":"m 290 -281 l 70 -281 l 244 292 l 563 330 l 290 -281 "},"Y":{"x_min":29.15625,"x_max":1123.71875,"ha":1153,"o":"m 618 660 l 840 1150 l 1123 1056 l 561 -87 l 255 -27 l 461 364 l 29 1053 l 319 1161 l 618 660 "},"E":{"x_min":71,"x_max":825.296875,"ha":891,"o":"m 71 0 l 71 1118 l 737 1118 l 794 871 l 358 871 l 358 695 l 672 695 l 672 448 l 356 448 l 356 247 l 825 247 l 751 0 l 71 0 "},"y":{"x_min":25.09375,"x_max":965.375,"ha":982,"o":"m 498 385 l 705 879 l 965 816 l 452 -290 l 173 -252 l 358 100 l 25 816 l 290 873 l 498 385 "},"\"":{"x_min":71,"x_max":526,"ha":589,"o":"m 71 713 l 71 1122 l 247 1122 l 247 713 l 71 713 m 350 716 l 350 1122 l 526 1122 l 526 716 l 350 716 "},"g":{"x_min":73.84375,"x_max":950.109375,"ha":990,"o":"m 950 887 l 895 678 l 806 669 q 849 600 820 655 q 872 500 872 550 q 872 489 872 495 q 839 366 872 418 q 772 288 808 313 q 732 259 736 262 q 776 228 736 256 q 851 148 817 201 q 884 14 884 93 q 757 -226 884 -137 q 469 -315 631 -315 q 191 -253 283 -315 q 73 -153 98 -193 l 220 6 q 220 6 220 6 q 249 -22 220 3 q 329 -74 281 -51 q 429 -93 374 -93 q 434 -93 432 -93 q 617 31 617 -93 q 568 139 617 102 q 442 176 518 176 q 425 176 433 176 q 345 171 381 176 q 268 152 302 163 q 233 140 233 140 l 261 220 q 149 309 215 240 q 83 505 83 377 q 83 510 83 508 q 134 688 83 610 q 270 810 184 766 q 452 854 355 854 q 476 854 464 854 q 587 849 534 854 q 678 840 650 840 q 950 887 827 855 m 472 649 q 376 610 415 649 q 336 510 336 569 q 336 499 336 504 q 370 399 336 444 q 467 351 408 351 q 553 371 515 351 q 607 428 590 392 q 624 502 624 461 q 624 507 624 504 q 577 612 624 575 q 472 649 534 649 "},"e":{"x_min":74,"x_max":930.5625,"ha":985,"o":"m 930 594 l 395 258 q 446 224 406 244 q 543 208 480 208 q 561 208 551 208 q 651 231 605 212 q 727 273 695 251 q 760 298 760 295 l 893 94 q 829 52 874 80 q 706 -4 783 24 q 543 -34 628 -34 q 537 -34 540 -34 q 307 22 412 -34 q 136 180 199 78 q 74 406 74 281 q 74 412 74 409 q 123 618 74 520 q 266 780 174 717 q 472 857 358 844 q 529 860 501 860 q 673 835 605 860 q 818 747 764 798 q 897 654 872 694 q 930 594 922 613 m 319 418 l 623 608 q 588 625 613 615 q 523 635 562 635 q 378 569 437 635 q 319 418 319 502 "},"J":{"x_min":73.265625,"x_max":665,"ha":723,"o":"m 372 404 l 372 1121 l 665 1147 l 665 432 q 633 201 665 295 q 512 46 599 107 q 267 -22 410 -22 q 189 -15 235 -22 q 144 -8 144 -8 q 144 -8 144 -8 l 73 268 q 141 252 83 262 q 215 246 181 246 q 241 247 228 246 q 349 293 326 255 q 372 404 372 330 "},"|":{"x_min":71,"x_max":214,"ha":271,"o":"m 71 -299 l 71 1087 l 71 1118 l 214 1118 l 214 -268 l 214 -299 l 71 -299 "},"^":{"x_min":70.875,"x_max":588.984375,"ha":646,"o":"m 70 950 l 333 1156 l 588 947 l 463 890 l 327 993 l 190 885 l 70 950 "},"q":{"x_min":25.28125,"x_max":962,"ha":1073,"o":"m 517 210 q 660 283 599 210 q 711 416 711 343 q 710 441 711 429 q 632 582 699 527 q 505 628 574 628 q 479 626 492 628 q 380 587 423 619 q 313 505 335 555 q 294 418 294 463 q 295 395 294 406 q 369 260 302 316 q 506 210 430 210 q 517 210 511 210 m 716 754 l 716 830 l 962 856 l 962 -279 l 716 -304 l 716 59 q 699 45 710 55 q 656 17 686 35 q 586 -13 625 0 q 500 -29 548 -25 q 474 -31 487 -31 q 320 -1 395 -31 q 167 92 232 30 q 64 237 102 154 q 25 412 25 319 q 28 423 28 418 q 90 646 28 542 q 255 807 151 749 q 476 864 357 864 q 482 864 479 864 q 716 754 607 864 "},"b":{"x_min":108,"x_max":1030,"ha":1058,"o":"m 108 1117 l 369 1147 l 369 794 q 582 854 462 854 q 810 792 706 854 q 973 625 913 731 q 1030 400 1030 523 q 1030 395 1030 398 q 995 227 1030 304 q 897 89 960 147 q 751 -5 835 29 q 577 -40 668 -40 q 400 -7 484 -40 q 250 83 316 24 q 146 221 185 141 q 108 392 108 302 l 108 1117 m 548 613 q 400 540 460 613 q 348 406 348 479 q 349 381 348 393 q 425 246 359 296 q 559 201 482 201 q 580 202 569 201 q 680 241 637 209 q 747 322 723 271 q 767 407 767 363 q 763 428 767 417 q 732 524 763 481 q 650 590 700 565 q 553 613 601 613 q 548 613 551 613 "},"D":{"x_min":65,"x_max":1021,"ha":1090,"o":"m 363 867 l 363 261 q 644 345 560 261 q 729 566 729 430 l 729 575 q 632 804 729 741 q 363 867 536 867 m 386 0 l 65 0 l 65 1118 l 403 1118 q 728 1055 588 1118 q 945 869 869 993 q 1021 563 1021 744 q 970 329 1021 436 q 835 149 921 222 q 631 38 748 77 q 386 0 513 0 "},"z":{"x_min":25.09375,"x_max":791.765625,"ha":822,"o":"m 148 846 l 781 846 l 452 245 l 791 245 l 726 0 l 25 0 l 366 606 l 88 606 l 148 846 "},"w":{"x_min":22.375,"x_max":1226.46875,"ha":1258,"o":"m 620 426 l 398 -40 l 22 828 l 284 857 l 418 461 l 626 896 l 830 475 l 965 847 l 1226 847 l 848 -48 l 620 426 "},"$":{"x_min":56.6875,"x_max":680,"ha":740,"o":"m 300 1090 l 300 1243 l 467 1261 l 467 1096 q 570 1060 525 1096 q 675 965 617 1026 l 526 835 q 472 881 498 866 q 409 897 446 897 q 328 845 338 897 q 363 799 333 816 q 448 770 394 783 q 509 753 502 756 q 625 673 570 728 q 680 515 680 616 q 515 267 680 349 q 485 258 500 262 q 461 249 469 252 l 461 84 l 296 61 l 296 244 q 296 244 296 244 q 264 250 296 244 q 201 267 229 256 q 101 327 145 295 q 56 363 56 359 l 193 520 q 347 447 266 447 q 429 498 429 447 q 384 555 429 539 q 328 574 374 560 q 254 596 280 587 q 196 628 228 606 q 115 720 146 663 q 86 833 86 776 q 135 979 86 917 q 239 1069 184 1038 q 300 1090 277 1090 "},"\\":{"x_min":70.875,"x_max":781.921875,"ha":846,"o":"m 239 1147 l 781 27 l 605 -37 l 70 1074 l 239 1147 "},"~":{"x_min":73.578125,"x_max":626.296875,"ha":681,"o":"m 154 953 l 73 1053 q 249 1142 149 1142 q 349 1117 283 1142 q 444 1089 416 1089 q 451 1091 449 1091 q 452 1091 452 1091 q 523 1117 495 1095 q 550 1145 550 1138 l 626 1039 q 458 956 554 956 q 455 956 457 956 q 352 982 414 956 q 261 1013 288 1013 q 154 953 201 1013 "},"-":{"x_min":71,"x_max":524,"ha":598,"o":"m 71 356 l 71 559 l 524 559 l 524 356 l 71 356 "},"Q":{"x_min":87,"x_max":1377.96875,"ha":1424,"o":"m 705 882 q 694 882 700 882 q 540 844 611 882 q 417 726 463 803 q 370 550 370 648 q 373 550 373 550 q 373 548 373 548 q 450 345 373 433 q 643 239 527 258 q 680 233 652 239 q 776 255 712 235 l 629 387 l 851 495 l 965 395 q 1013 552 1013 468 q 972 711 1013 635 q 861 835 932 787 q 705 882 790 882 m 667 1150 q 681 1150 674 1150 q 981 1083 841 1150 q 1213 882 1126 1014 q 1301 572 1301 750 q 1301 563 1301 568 q 1271 375 1301 466 q 1186 208 1236 279 l 1377 37 l 1126 -76 l 987 59 q 705 -25 865 -25 q 688 -25 697 -25 q 396 45 531 -25 q 170 253 254 120 q 87 545 87 385 q 87 553 87 549 q 127 774 87 670 q 246 967 167 882 q 434 1101 325 1051 q 667 1150 542 1150 "},"M":{"x_min":73.578125,"x_max":1405.5,"ha":1457,"o":"m 73 0 l 379 1178 l 737 444 l 1109 1175 l 1405 2 l 1117 -22 l 1025 475 l 737 -88 l 458 480 l 358 -31 l 73 0 "},"C":{"x_min":71,"x_max":927.640625,"ha":990,"o":"m 879 1110 l 924 792 q 709 877 832 877 q 471 779 567 877 q 379 551 379 686 q 379 537 379 544 q 483 311 379 395 q 696 232 577 232 q 719 238 708 232 q 927 318 840 238 l 884 11 q 740 -26 808 -26 q 669 -33 704 -33 q 483 -3 573 -33 q 266 119 361 34 q 122 315 172 202 q 71 551 71 427 q 112 771 71 665 q 229 959 154 877 q 405 1090 302 1040 q 623 1140 508 1140 l 683 1140 q 879 1110 783 1140 "},"[":{"x_min":71,"x_max":369.578125,"ha":429,"o":"m 71 1193 l 361 1193 l 361 1118 l 179 1118 l 179 -131 l 369 -131 l 369 -206 l 71 -206 l 71 1180 l 71 1193 "},"L":{"x_min":97,"x_max":838.125,"ha":865,"o":"m 398 1147 l 398 268 l 838 268 l 764 0 l 97 0 l 97 1118 l 398 1147 "},"!":{"x_min":71.234375,"x_max":442.546875,"ha":519,"o":"m 117 361 l 117 1158 l 391 1190 l 391 387 l 117 361 m 258 -37 l 71 148 l 258 338 l 442 151 l 258 -37 "}," ":{"x_min":0,"x_max":0,"ha":453},"{":{"x_min":65.5,"x_max":425.984375,"ha":489,"o":"m 319 1044 q 290 916 290 1007 l 290 608 q 260 484 290 534 q 162 420 230 434 q 290 219 290 395 l 290 -108 q 327 -221 290 -172 q 425 -281 363 -270 l 381 -281 q 376 -281 378 -281 q 270 -250 321 -281 q 205 -179 216 -219 q 193 -87 193 -129 l 193 255 q 159 365 193 316 q 65 416 125 416 q 161 477 126 430 q 196 588 196 524 l 196 612 l 196 911 q 206 1007 196 968 q 249 1073 217 1045 q 378 1118 292 1118 l 423 1118 q 319 1044 360 1100 "},"X":{"x_min":25.09375,"x_max":1166.796875,"ha":1199,"o":"m 59 1118 l 349 1207 l 605 806 l 873 1221 l 1149 1118 l 770 580 l 1166 0 l 873 -100 l 599 336 l 306 -111 l 25 0 l 434 575 l 59 1118 "},"P":{"x_min":108,"x_max":916,"ha":947,"o":"m 441 871 l 401 871 l 401 632 l 441 632 q 631 751 631 632 q 631 754 631 752 q 580 850 631 827 q 441 871 529 871 m 639 407 q 477 394 599 394 q 420 394 433 394 q 399 394 407 394 l 399 2 l 108 -22 l 108 1118 l 428 1118 q 916 751 916 1118 q 852 544 916 643 q 639 407 788 444 "},"%":{"x_min":71,"x_max":1200,"ha":1259,"o":"m 919 549 q 930 549 925 549 q 1058 519 1000 549 q 1160 423 1120 485 q 1200 287 1200 361 q 1200 270 1200 278 q 1171 144 1200 203 q 1076 38 1136 77 q 941 -2 1015 -2 q 939 -2 940 -2 q 738 78 818 -2 q 657 276 657 160 q 733 469 657 388 q 919 549 810 549 m 566 1041 q 599 1018 576 1034 q 641 990 622 1000 q 686 980 661 980 q 759 1001 725 985 q 840 1072 811 1031 q 876 1133 868 1112 l 1014 1093 l 372 -31 l 241 16 l 729 871 q 680 857 705 861 q 621 885 643 863 l 621 863 q 540 665 621 750 q 347 581 459 581 q 152 662 234 581 q 71 857 71 744 q 150 1050 71 968 q 341 1132 229 1132 q 350 1132 346 1132 q 425 1122 389 1132 q 490 1098 465 1112 q 533 1069 515 1083 q 566 1041 551 1054 m 336 967 q 259 933 290 967 q 228 854 228 901 q 261 774 228 807 q 338 741 294 741 q 423 778 386 741 q 457 854 457 811 q 457 860 457 857 q 421 939 457 908 q 340 967 386 967 q 336 967 338 967 m 924 382 q 843 348 878 382 q 809 268 809 315 q 811 260 811 265 q 851 187 815 217 q 922 160 883 160 q 930 160 926 160 q 1006 195 975 160 q 1035 273 1035 228 q 1001 351 1035 319 q 924 382 969 382 "},"#":{"x_min":70.875,"x_max":1030.484375,"ha":1110,"o":"m 415 1120 l 477 1300 l 629 1300 l 561 1115 l 694 1115 l 762 1300 l 908 1300 l 842 1118 l 1030 1118 l 981 982 l 794 982 l 745 839 l 930 839 l 881 697 l 694 697 l 626 503 l 477 503 l 543 697 l 412 697 l 344 503 l 192 503 l 262 697 l 70 697 l 119 836 l 312 836 l 363 979 l 173 979 l 227 1120 l 415 1120 m 512 976 l 461 839 l 594 839 l 642 976 l 512 976 "},"_":{"x_min":8,"x_max":1004,"ha":965,"o":"m 8 -231 l 8 -209 l 1004 -209 l 1004 -231 l 8 -231 "},"+":{"x_min":73.484375,"x_max":859.21875,"ha":927,"o":"m 418 447 l 418 794 l 512 794 l 512 444 l 859 444 l 859 347 l 510 347 l 510 -6 l 418 -6 l 418 347 l 73 347 l 73 447 l 418 447 "},")":{"x_min":73.671875,"x_max":581,"ha":649,"o":"m 581 580 q 581 544 581 562 q 498 82 581 301 q 233 -338 407 -155 l 76 -198 q 240 25 175 -92 q 337 272 306 141 q 368 561 368 403 q 368 580 368 570 q 339 802 368 687 q 238 1051 305 926 q 73 1278 171 1176 l 219 1418 q 484 1032 386 1253 q 581 580 581 810 "},"'":{"x_min":71.265625,"x_max":366,"ha":433,"o":"m 201 654 l 71 723 q 117 806 79 726 q 154 928 154 885 q 128 979 154 954 q 82 1012 101 1003 l 247 1150 q 321 1086 272 1138 q 366 976 366 1035 q 366 973 366 975 q 304 812 366 914 q 201 654 242 710 "},"}":{"x_min":54.03125,"x_max":414.828125,"ha":449,"o":"m 56 1121 l 97 1121 q 230 1076 187 1121 q 273 1010 262 1048 q 285 911 285 969 l 285 615 q 286 578 285 591 q 414 419 286 443 q 320 372 352 419 q 287 258 287 323 l 287 -84 q 234 -225 287 -167 q 111 -278 184 -278 q 97 -278 103 -278 l 54 -278 q 152 -216 113 -266 q 190 -105 190 -168 l 190 225 q 314 421 190 404 q 190 609 190 457 l 190 919 q 56 1121 190 1067 "},"a":{"x_min":74,"x_max":825.21875,"ha":893,"o":"m 825 581 l 825 2 l 586 -25 l 586 45 q 560 22 586 41 q 489 -15 532 1 q 387 -34 445 -34 q 382 -34 385 -34 q 232 0 301 -34 q 117 102 158 36 q 74 258 74 168 q 117 407 74 341 q 235 511 158 474 q 382 545 303 545 q 399 545 390 545 q 489 529 449 545 q 553 495 528 513 q 578 477 578 477 q 570 558 578 529 q 521 627 557 604 q 413 649 486 649 q 404 649 408 649 q 265 618 346 649 q 173 577 183 587 l 222 814 q 276 828 225 817 q 380 848 328 840 q 480 857 432 857 q 497 857 489 857 q 652 831 580 857 q 777 739 730 800 q 825 581 825 678 m 576 260 q 538 342 576 310 q 450 371 502 371 q 444 371 447 371 q 359 342 394 371 q 323 268 323 313 q 323 262 323 265 q 355 188 323 216 q 453 157 392 157 q 540 183 504 157 q 576 260 576 209 "},"T":{"x_min":70.5625,"x_max":939,"ha":999,"o":"m 939 849 l 660 849 l 660 0 l 372 -25 l 372 849 l 70 849 l 145 1118 l 939 1118 l 939 849 "},"=":{"x_min":76,"x_max":879,"ha":947,"o":"m 76 455 l 76 546 l 879 546 l 879 455 l 76 455 m 76 157 l 76 247 l 879 247 l 879 157 l 76 157 "},"N":{"x_min":71,"x_max":1059,"ha":1124,"o":"m 71 -25 l 71 1193 l 777 552 l 777 1118 l 1059 1147 l 1059 -79 l 359 548 l 359 0 l 71 -25 "},"2":{"x_min":70.78125,"x_max":956,"ha":1010,"o":"m 70 0 l 491 504 q 629 757 629 682 q 629 765 629 761 q 581 874 620 838 q 493 908 545 908 q 485 908 489 908 q 393 868 429 908 q 357 773 357 829 q 357 768 357 771 q 452 643 357 691 l 290 429 q 256 451 288 430 q 195 495 225 472 q 84 769 84 603 q 84 792 84 780 q 139 983 84 897 q 292 1114 194 1068 q 498 1159 386 1159 q 504 1159 502 1159 q 707 1117 613 1159 q 859 996 800 1075 q 917 806 917 916 q 917 789 917 797 q 868 595 917 703 q 734 390 814 476 l 618 261 l 956 261 l 887 0 l 70 0 "},"j":{"x_min":-31.90625,"x_max":444.078125,"ha":572,"o":"m 139 88 l 139 824 l 401 856 l 401 62 q 384 -110 401 -51 q 309 -225 366 -168 q 91 -302 226 -302 l 51 -302 l -31 -69 q -19 -69 -29 -69 q 2 -71 -9 -70 q 105 -40 76 -71 q 133 11 127 -17 q 139 88 139 39 m 273 878 l 91 1018 l 249 1185 l 444 1046 l 273 878 "},"Z":{"x_min":31.875,"x_max":1036.25,"ha":1067,"o":"m 173 1118 l 1036 1118 l 518 265 l 1027 265 l 955 -3 l 31 -3 l 537 868 l 113 868 l 173 1118 "},"u":{"x_min":71,"x_max":792,"ha":863,"o":"m 331 856 l 331 355 q 331 336 331 344 q 411 193 331 193 q 438 196 424 193 q 522 265 501 212 q 543 406 543 318 l 543 846 l 792 846 l 792 2 l 545 -28 l 545 65 q 533 46 541 58 q 498 14 524 35 q 434 -19 470 -6 q 347 -33 397 -33 q 333 -33 340 -33 q 209 -2 266 -33 q 108 97 146 31 q 71 238 71 161 l 71 833 l 331 856 "},"1":{"x_min":70.9375,"x_max":640,"ha":719,"o":"m 173 672 l 70 849 l 640 1199 l 640 2 l 350 -22 l 350 762 l 173 672 "},"k":{"x_min":103,"x_max":947.515625,"ha":969,"o":"m 667 -34 l 367 379 l 367 2 l 103 -22 l 103 1118 l 367 1150 l 367 480 l 651 865 l 911 783 l 632 434 l 947 34 l 667 -34 "},"<":{"x_min":74,"x_max":846,"ha":920,"o":"m 74 442 l 846 794 l 846 689 l 203 401 l 846 97 l 846 -2 l 74 358 l 74 442 "},"t":{"x_min":87.625,"x_max":722.671875,"ha":749,"o":"m 493 587 l 493 350 q 505 272 493 293 q 550 233 516 249 q 621 220 569 225 q 678 226 644 220 q 722 233 710 230 l 646 -28 q 625 -28 640 -28 q 589 -28 609 -28 q 375 22 458 -28 q 228 287 228 106 l 228 587 l 87 587 l 154 820 l 236 820 l 236 982 l 493 1088 l 493 820 l 663 820 l 663 587 l 493 587 "},"W":{"x_min":31.875,"x_max":1510.96875,"ha":1531,"o":"m 773 1193 l 1055 615 l 1226 1150 l 1510 1118 l 1090 -65 l 765 597 l 434 -65 l 31 1118 l 322 1153 l 483 609 l 773 1193 "},"v":{"x_min":19.328125,"x_max":870.765625,"ha":906,"o":"m 447 -84 l 19 806 l 281 854 l 449 464 l 615 854 l 870 806 l 447 -84 "},">":{"x_min":82,"x_max":854,"ha":908,"o":"m 82 797 l 854 447 l 854 364 l 82 2 l 82 100 l 723 404 l 82 692 l 82 797 "},"s":{"x_min":70.421875,"x_max":769.65625,"ha":825,"o":"m 748 726 l 586 580 q 576 594 586 583 q 552 613 564 604 q 516 633 539 623 q 460 643 491 643 q 392 627 421 643 q 361 580 361 611 q 361 577 361 579 q 388 545 361 559 q 460 523 416 532 q 552 506 505 515 q 702 431 631 491 q 769 242 769 372 q 769 236 769 239 q 719 93 769 158 q 586 -7 668 28 q 417 -41 508 -41 q 403 -41 410 -41 q 189 11 286 -41 q 70 81 92 59 l 204 258 q 279 201 227 234 q 398 168 331 168 q 403 168 400 168 q 485 187 450 168 q 515 231 515 203 q 515 238 515 234 q 487 278 510 269 q 389 302 463 287 q 261 338 314 316 q 105 575 105 408 q 149 718 105 654 q 264 819 192 782 q 417 856 335 856 q 439 856 428 856 q 638 806 548 856 q 748 726 737 750 "},"B":{"x_min":71,"x_max":883,"ha":957,"o":"m 526 1 l 71 1 l 71 1118 l 404 1118 q 724 1065 609 1118 q 845 845 845 1012 q 853 822 853 833 q 825 707 853 755 q 758 622 791 648 q 705 586 723 594 q 755 556 709 583 q 840 477 799 529 q 883 347 883 424 q 883 313 883 330 q 848 159 883 225 q 718 42 802 82 q 526 1 632 1 m 421 461 l 350 461 l 350 228 l 431 228 q 556 258 517 228 q 591 338 591 286 q 591 347 591 343 q 549 435 591 409 q 421 461 505 461 m 418 903 l 350 903 l 350 678 l 421 678 q 522 711 479 678 q 559 789 559 740 q 559 802 559 796 q 517 883 553 864 q 418 903 479 903 "},"?":{"x_min":71,"x_max":794,"ha":855,"o":"m 429 -59 l 249 128 l 432 307 l 610 119 l 429 -59 m 551 432 l 551 366 l 302 344 l 302 469 q 353 649 302 597 q 421 701 372 668 q 493 763 469 733 q 513 820 513 786 q 513 830 513 825 q 469 896 507 877 q 402 913 438 913 q 385 911 393 913 q 307 869 343 906 q 271 822 271 833 l 71 979 q 71 979 71 979 q 115 1031 71 983 q 239 1122 163 1082 q 418 1162 312 1162 q 437 1162 428 1162 q 611 1125 533 1162 q 745 1003 696 1081 q 794 830 794 924 q 794 825 794 828 q 739 647 794 726 q 600 526 681 566 q 551 440 551 498 q 551 432 551 436 "},"H":{"x_min":71,"x_max":1022,"ha":1084,"o":"m 722 -25 l 722 447 l 370 447 l 370 0 l 71 -25 l 71 1130 l 370 1130 l 370 705 l 722 705 l 722 1118 l 1022 1144 l 1022 0 l 722 -25 "},"c":{"x_min":74,"x_max":841.09375,"ha":897,"o":"m 837 754 l 698 569 q 684 581 693 573 q 654 598 672 589 q 602 616 635 608 q 546 623 573 623 q 538 623 542 623 q 394 555 450 623 q 344 415 344 493 q 344 398 344 406 q 400 256 344 307 q 537 203 454 203 q 622 214 588 203 q 678 245 656 227 q 698 262 698 260 q 698 262 698 262 l 841 73 q 734 6 810 46 q 540 -36 656 -36 q 535 -36 538 -36 q 297 20 402 -36 q 132 183 190 79 q 74 410 74 286 q 132 636 74 531 q 292 801 189 740 q 524 863 393 863 q 735 822 659 863 q 837 754 811 782 "},"&":{"x_min":70,"x_max":1114.796875,"ha":1169,"o":"m 632 882 q 612 925 632 906 q 549 945 591 945 q 493 924 516 945 q 470 868 470 901 q 526 765 488 802 q 588 802 540 765 q 632 875 632 836 q 632 882 632 878 m 635 298 l 472 472 q 415 434 449 462 q 366 363 378 406 q 365 330 366 358 q 480 211 365 211 q 548 230 516 215 q 635 298 635 284 m 675 599 l 802 452 l 959 602 l 1114 420 l 956 284 l 1114 107 l 921 -45 l 773 130 q 733 91 773 127 q 659 31 693 54 q 434 -32 565 -32 q 252 11 334 -32 q 122 132 171 54 q 70 309 70 212 q 148 526 70 434 q 236 603 180 567 q 306 645 291 640 q 257 712 294 653 q 214 822 219 769 q 213 852 213 837 q 229 951 213 907 q 297 1053 250 1008 q 402 1120 343 1097 q 526 1144 462 1144 q 550 1144 539 1144 q 788 1071 712 1144 q 871 856 871 994 q 871 853 871 855 q 830 733 871 788 q 742 644 787 676 q 675 599 696 612 "},"I":{"x_min":146,"x_max":432,"ha":561,"o":"m 146 -11 l 146 1118 l 432 1147 l 432 -11 l 146 -11 "},"G":{"x_min":78,"x_max":1142,"ha":1213,"o":"m 1107 982 l 936 768 q 670 882 822 882 q 656 882 664 882 q 514 836 580 882 q 407 717 447 790 q 367 564 367 643 q 460 330 367 423 q 694 236 551 236 q 791 248 733 236 q 854 265 849 261 l 854 432 l 566 432 l 648 663 l 1142 663 l 1142 84 q 1071 49 1136 79 q 901 -4 1004 20 q 686 -29 799 -29 q 376 50 516 -29 q 155 265 234 129 q 78 555 78 399 q 78 561 78 558 q 156 854 78 722 q 365 1066 230 987 q 660 1145 498 1145 q 668 1145 664 1145 q 951 1089 847 1145 q 1107 982 1058 1031 "},"(":{"x_min":85,"x_max":592.015625,"ha":646,"o":"m 444 1417 l 592 1275 q 371 929 444 1121 q 296 558 296 736 q 366 145 296 330 q 589 -201 437 -40 l 432 -341 q 237 -72 316 -219 q 119 241 158 74 q 85 536 85 387 q 85 578 85 557 q 184 1032 85 810 q 444 1417 283 1254 "},"`":{"x_min":51.546875,"x_max":449.96875,"ha":512,"o":"m 133 1156 l 449 990 l 379 865 l 51 1012 l 133 1156 "},"U":{"x_min":71,"x_max":982,"ha":1047,"o":"m 71 372 l 71 1121 l 364 1148 l 364 421 q 516 241 364 241 q 540 242 527 241 q 661 306 636 250 q 686 435 686 361 l 686 1118 l 982 1145 l 982 402 q 855 80 982 190 q 529 -31 729 -31 q 508 -31 518 -31 q 290 11 386 -31 q 129 153 186 58 q 71 372 71 246 "},"F":{"x_min":71,"x_max":767.90625,"ha":825,"o":"m 71 -28 l 71 1118 l 697 1118 l 767 871 l 361 871 l 361 632 l 662 632 l 662 379 l 361 379 l 361 0 l 71 -28 "},"r":{"x_min":103,"x_max":656.6875,"ha":678,"o":"m 378 349 l 378 -3 l 103 -29 l 103 822 l 361 854 l 361 713 q 456 812 392 776 q 591 848 519 848 q 631 848 613 848 q 656 842 649 844 l 572 577 q 558 581 569 578 q 529 583 547 583 q 472 574 504 583 q 396 513 415 558 q 377 392 377 467 q 378 349 378 378 "},":":{"x_min":70.875,"x_max":463.875,"ha":524,"o":"m 273 426 l 70 605 l 258 797 l 461 618 l 273 426 m 279 -43 l 79 141 l 265 330 l 463 145 l 279 -43 "},"x":{"x_min":29.15625,"x_max":911.125,"ha":947,"o":"m 51 819 l 312 887 l 480 618 l 651 885 l 908 822 l 623 420 l 911 0 l 645 -76 l 472 214 l 292 -76 l 29 0 l 327 420 l 51 819 "},"*":{"x_min":70.671875,"x_max":609.953125,"ha":670,"o":"m 287 1047 l 287 1221 l 393 1247 l 393 1047 l 529 1142 l 609 1058 l 436 960 l 597 885 l 561 776 l 396 876 l 396 705 l 293 675 l 293 868 l 151 771 l 70 854 l 246 957 l 88 1030 l 121 1142 l 287 1047 "},"V":{"x_min":25.09375,"x_max":1047.09375,"ha":1076,"o":"m 25 1118 l 319 1170 l 523 575 l 754 1172 l 1047 1118 l 512 -91 l 25 1118 "},"h":{"x_min":74,"x_max":784,"ha":866,"o":"m 336 435 l 336 0 l 74 -25 l 74 1117 l 336 1144 l 336 767 q 358 794 338 770 q 416 836 376 816 q 509 854 455 854 q 682 801 621 854 q 764 684 743 748 q 784 570 784 620 l 784 -11 l 524 -11 l 524 477 q 443 611 524 611 q 432 611 437 611 q 362 574 389 611 q 336 435 336 537 "},"0":{"x_min":74.609375,"x_max":932,"ha":999,"o":"m 506 1141 q 828 976 725 1141 q 932 529 932 811 q 932 512 932 520 q 909 337 932 427 q 829 155 883 235 q 691 23 775 73 q 501 -27 608 -27 q 267 50 364 -27 q 122 255 169 128 q 74 534 74 383 q 78 552 78 543 q 186 975 78 809 q 503 1141 294 1141 q 506 1141 505 1141 m 501 885 q 382 784 414 885 q 352 568 352 691 q 352 549 352 559 q 501 229 352 229 q 503 229 502 229 q 654 561 654 229 q 619 787 654 689 q 501 885 584 885 "},".":{"x_min":73.578125,"x_max":458.4375,"ha":510,"o":"m 270 -37 l 73 145 l 261 338 l 458 151 l 270 -37 "},"@":{"x_min":82,"x_max":1177,"ha":1234,"o":"m 450 594 q 412 423 412 505 q 489 287 412 316 q 534 277 501 281 q 648 336 595 277 q 734 480 699 395 q 781 654 781 583 q 749 750 781 707 q 665 792 718 792 q 544 732 602 792 q 450 594 486 672 m 843 776 l 859 843 l 968 843 l 797 341 q 796 331 796 335 q 791 315 794 326 q 797 290 794 305 q 808 268 800 274 q 833 259 816 259 q 921 295 869 259 q 998 376 972 330 q 1076 637 1076 522 q 1016 835 1076 744 q 859 976 956 923 q 653 1029 761 1029 q 645 1029 649 1029 q 465 993 550 1029 q 311 883 376 954 q 208 722 244 812 q 172 526 172 631 q 174 526 173 526 q 174 523 174 524 q 237 279 174 392 q 405 98 298 163 q 640 31 512 31 q 1046 239 911 31 l 1141 239 q 651 -48 978 -48 q 642 -48 647 -48 q 359 33 487 -48 q 156 247 230 112 q 82 534 82 380 q 124 754 82 647 q 249 944 167 861 q 434 1070 330 1027 q 632 1109 527 1109 q 651 1109 641 1109 q 848 1070 751 1109 q 1017 969 944 1031 q 1134 818 1091 905 q 1177 623 1177 729 q 1156 488 1177 540 q 1087 349 1135 437 q 1023 268 1066 308 q 927 202 979 227 q 822 175 876 175 q 688 258 735 182 q 518 184 619 184 q 415 205 469 187 q 295 415 295 255 q 345 632 295 519 q 481 804 391 732 q 664 877 572 877 q 843 776 775 877 "},"f":{"x_min":107.984375,"x_max":734.96875,"ha":743,"o":"m 330 1073 q 645 1178 431 1178 l 665 1178 l 734 939 q 651 957 695 957 q 553 923 598 957 q 501 839 509 890 q 504 830 504 830 q 504 828 504 829 l 678 828 l 678 600 l 509 600 l 509 0 l 247 -22 l 247 597 l 107 597 l 170 825 l 250 825 q 250 828 250 826 q 252 833 250 828 q 330 1073 252 990 "},";":{"x_min":70.875,"x_max":569.328125,"ha":632,"o":"m 379 436 l 184 615 l 375 800 l 569 626 l 379 436 m 290 -282 l 70 -282 l 244 293 l 563 330 l 290 -282 "},"i":{"x_min":132.9375,"x_max":485.46875,"ha":577,"o":"m 314 885 l 132 1025 l 292 1191 l 485 1053 l 314 885 m 176 825 l 438 857 l 438 -4 l 176 -4 l 176 825 "},"6":{"x_min":86,"x_max":943,"ha":1009,"o":"m 539 1183 l 838 1074 q 753 1004 828 1071 q 645 906 677 938 q 511 754 582 843 q 532 757 511 754 q 563 761 553 760 q 585 763 573 763 q 839 654 738 763 q 943 390 943 544 q 943 374 943 382 q 885 165 943 254 q 720 20 822 69 q 513 -29 617 -29 q 199 96 321 -29 q 86 392 86 211 q 89 421 86 406 q 109 555 89 493 q 156 672 127 617 q 223 787 184 728 q 284 885 260 847 q 539 1183 331 964 m 511 540 q 404 492 448 540 q 368 390 368 447 q 368 379 368 385 q 412 277 368 320 q 518 234 457 234 q 627 282 581 234 q 671 385 671 327 q 671 393 671 389 q 623 502 671 457 q 523 540 578 540 q 511 540 517 540 "},"A":{"x_min":68.15625,"x_max":1294.28125,"ha":1332,"o":"m 68 0 l 680 1201 l 1294 0 l 1007 -62 l 884 193 l 463 193 l 355 -65 l 68 0 m 786 429 l 672 680 l 561 429 l 786 429 "},"n":{"x_min":74.015625,"x_max":795,"ha":857,"o":"m 535 -22 l 535 472 q 435 629 535 629 q 336 472 336 629 l 336 -3 l 74 -25 l 74 825 l 318 854 l 318 760 q 342 788 318 762 q 408 835 364 812 q 523 858 453 858 q 537 858 531 858 q 717 784 643 858 q 795 586 795 704 l 795 0 l 535 -22 "},"O":{"x_min":84,"x_max":1292,"ha":1361,"o":"m 680 882 q 519 833 593 882 q 402 704 444 783 q 366 551 366 632 q 366 535 366 543 q 418 382 366 453 q 544 269 466 309 q 686 237 613 237 q 699 237 693 237 q 923 346 826 237 q 1008 552 1008 440 q 1008 586 1008 569 q 954 738 999 668 q 836 846 908 807 q 686 882 765 882 q 680 882 683 882 m 693 1150 q 998 1068 857 1150 q 1216 849 1137 985 q 1292 555 1292 714 q 1292 549 1292 552 q 1208 254 1292 387 q 985 45 1125 121 q 701 -27 851 -27 q 685 -27 693 -27 q 436 21 549 -27 q 242 155 324 70 q 119 350 160 240 q 84 560 84 448 q 84 582 84 571 q 167 873 84 741 q 391 1077 250 1003 q 687 1150 527 1150 q 693 1150 690 1150 "},"3":{"x_min":67.9375,"x_max":911,"ha":976,"o":"m 290 803 l 87 940 q 128 1002 94 959 q 202 1071 163 1045 q 474 1154 317 1154 q 672 1109 576 1154 q 823 981 766 1063 q 868 834 868 914 q 865 792 868 813 q 833 687 856 730 q 783 619 808 643 q 754 594 756 595 q 866 480 822 561 q 911 319 911 400 q 893 213 911 262 q 844 126 873 165 q 786 62 815 87 q 483 -29 680 -29 q 255 16 361 -29 q 67 154 148 62 l 260 335 q 299 294 272 320 q 366 249 327 268 q 466 224 420 224 q 566 256 522 224 q 610 343 610 288 q 592 415 610 384 q 545 455 574 445 q 406 469 494 469 q 364 469 376 469 q 347 466 353 467 l 347 678 q 369 678 353 678 q 403 676 384 676 q 533 698 478 676 q 586 784 586 719 q 548 869 586 837 q 455 901 510 901 q 355 874 403 901 q 290 803 305 846 "},"]":{"x_min":71.203125,"x_max":370,"ha":436,"o":"m 79 1196 l 370 1196 l 370 -190 l 370 -203 l 71 -203 l 71 -131 l 256 -131 l 256 1121 l 79 1121 l 79 1196 "},"m":{"x_min":71.3125,"x_max":1207,"ha":1270,"o":"m 1207 -8 l 953 -8 l 953 493 q 936 594 953 554 q 878 628 922 628 q 859 626 869 628 q 789 583 805 621 q 769 483 769 546 q 771 441 771 466 l 771 -9 l 513 -9 l 513 486 q 439 630 513 630 q 421 626 431 630 q 351 580 365 617 q 336 455 336 544 l 336 -9 l 71 -9 l 71 828 l 318 857 l 318 774 q 337 799 318 778 q 393 840 356 820 q 493 861 431 861 q 516 864 504 864 q 582 853 551 864 q 643 821 621 839 q 679 782 664 802 q 694 757 694 762 q 793 838 741 813 q 919 862 844 862 q 925 862 922 862 q 1065 829 1001 862 q 1169 733 1132 795 q 1207 588 1207 668 l 1207 -8 "},"9":{"x_min":81,"x_max":940,"ha":1007,"o":"m 485 -64 l 187 38 q 262 100 201 47 q 376 208 323 153 q 512 364 444 275 q 423 356 478 356 q 177 467 270 356 q 81 727 81 574 q 81 748 81 738 q 137 952 81 865 q 300 1097 200 1048 q 510 1146 399 1146 q 826 1023 703 1146 q 940 727 940 909 q 936 698 940 713 q 916 566 936 631 q 868 445 896 499 q 801 328 840 391 q 740 233 762 265 q 617 79 701 171 q 485 -64 534 -13 m 508 577 q 615 625 571 577 q 658 735 658 672 q 658 738 658 737 q 636 810 658 778 q 580 862 615 842 q 506 879 545 879 q 398 832 441 879 q 356 726 356 787 q 356 723 356 725 q 402 619 356 662 q 505 577 445 577 q 508 577 507 577 "},"l":{"x_min":133,"x_max":399,"ha":516,"o":"m 133 -25 l 133 1118 l 399 1144 l 399 0 l 133 -25 "},"8":{"x_min":85,"x_max":901,"ha":957,"o":"m 486 709 q 551 742 504 709 q 597 825 597 772 q 597 828 597 827 q 567 899 597 875 q 491 923 538 923 q 420 896 448 923 q 391 825 391 868 q 391 822 391 824 q 410 765 391 791 q 455 726 430 739 q 486 709 479 713 m 491 473 q 408 428 458 461 q 359 328 359 393 q 400 235 359 265 q 501 204 440 204 q 568 221 536 204 q 618 264 598 237 q 635 314 635 288 q 635 322 635 318 q 570 433 627 394 q 491 473 512 473 m 241 584 q 204 618 239 585 q 143 707 168 650 q 120 814 120 753 q 126 840 120 827 q 181 1014 126 943 q 325 1119 237 1085 q 490 1147 403 1147 q 507 1147 498 1147 q 764 1067 661 1147 q 870 836 870 989 q 870 818 870 827 q 849 704 870 754 q 781 617 818 648 q 740 584 743 587 q 847 493 785 561 q 901 326 901 429 q 901 306 901 316 q 787 56 901 140 q 504 -27 674 -27 q 487 -27 496 -27 q 203 54 314 -27 q 85 296 85 140 q 85 302 85 299 q 115 442 85 381 q 191 545 148 504 q 241 584 234 584 "},"p":{"x_min":85,"x_max":1012,"ha":1036,"o":"m 746 395 q 746 412 746 404 q 730 502 746 459 q 663 584 706 552 q 563 620 619 615 q 537 622 549 622 q 453 604 494 622 q 370 537 402 580 q 330 435 337 492 q 329 415 329 424 q 384 275 329 338 q 535 203 445 203 q 683 259 620 203 q 746 395 746 316 m 569 858 q 574 858 572 858 q 784 801 685 858 q 948 644 886 743 q 1012 420 1012 543 q 952 197 1012 303 q 788 29 892 92 q 563 -34 684 -34 l 560 -34 q 433 -2 490 -34 q 352 45 374 26 l 352 -273 l 85 -298 l 85 833 l 333 856 l 333 756 q 569 858 433 858 "},"4":{"x_min":71.234375,"x_max":987.71875,"ha":1053,"o":"m 447 1139 l 825 1139 l 825 515 l 987 515 l 947 268 l 828 268 l 828 0 l 549 -25 l 549 268 l 71 268 l 447 1139 m 567 504 l 567 876 l 409 504 l 567 504 "},"R":{"x_min":71,"x_max":1004.015625,"ha":1093,"o":"m 694 483 l 1004 59 l 708 -32 l 367 491 l 367 -11 l 71 -11 l 71 1118 l 422 1118 q 866 791 866 1118 q 877 765 877 777 q 694 483 877 584 m 367 600 l 432 600 q 548 647 508 600 q 583 746 583 690 q 583 754 583 750 q 427 900 583 900 l 367 900 l 367 600 "},"o":{"x_min":84,"x_max":1000.65625,"ha":1061,"o":"m 529 869 q 540 869 535 869 q 773 813 670 869 q 941 652 880 755 q 1000 422 1000 550 l 1000 420 q 943 204 1000 302 q 787 44 886 105 q 574 -21 688 -21 q 544 -26 559 -26 q 338 22 437 -26 q 155 178 223 77 q 84 405 84 278 q 84 421 84 413 q 139 633 84 533 q 304 804 198 739 q 529 869 407 869 m 539 625 q 439 597 484 625 q 370 522 395 569 q 344 424 344 475 q 403 284 344 342 q 545 227 463 227 q 688 285 630 227 q 746 425 746 342 q 685 569 746 511 q 542 625 626 625 q 539 625 541 625 "},"5":{"x_min":70.9375,"x_max":886,"ha":948,"o":"m 70 128 l 265 331 q 283 313 269 327 q 318 282 295 297 q 371 256 340 267 q 447 243 401 243 q 566 292 515 243 q 610 385 610 334 q 608 404 610 394 q 570 490 600 458 q 498 535 540 521 q 415 549 457 549 q 276 528 343 549 q 193 493 209 506 l 193 1121 l 834 1121 l 765 866 l 464 866 l 464 763 q 476 766 469 764 q 490 768 482 767 q 504 771 498 770 q 521 771 509 771 q 715 711 631 771 q 844 555 799 652 q 886 361 886 461 q 886 355 886 358 q 827 156 886 244 q 670 17 767 67 q 466 -33 574 -33 q 455 -33 461 -33 q 212 31 330 -33 q 70 128 90 99 "}}}
